HIERARCHY
ROOT Hips
{
	OFFSET 0.000000 71.427986 0.000000
	CHANNELS 6 Xposition Yposition Zposition Xrotation Yrotation Zrotation
	JOINT Pelvis
	{
		OFFSET 0.000000 0.000000 0.000000
		CHANNELS 3 Xrotation Yrotation Zrotation
		JOINT LeftUpLeg
		{
			OFFSET 6.797100 -2.508499 -1.318700
			CHANNELS 3 Xrotation Yrotation Zrotation
			JOINT LeftLeg
			{
				OFFSET 0.069008 -29.241863 0.690200
				CHANNELS 3 Xrotation Yrotation Zrotation
				JOINT LeftFoot
				{
					OFFSET -0.069008 -29.568123 -0.266800
					CHANNELS 3 Xrotation Yrotation Zrotation
					JOINT LeftToeBase
					{
						OFFSET 3.145500 -8.631000 16.059900
						CHANNELS 3 Xrotation Yrotation Zrotation
						End Site
						{
							OFFSET 0.000000 18.501587 0.000000
						}
					}
				}
			}
			JOINT Left_ShortSleeve
			{
				OFFSET 0.265923 -10.480953 1.153800
				CHANNELS 3 Xrotation Yrotation Zrotation
				End Site
				{
					OFFSET 1.725763 19.823879 0.000000
				}
			}
		}
		JOINT RightUpLeg
		{
			OFFSET -6.797100 -2.508499 -1.318700
			CHANNELS 3 Xrotation Yrotation Zrotation
			JOINT RightLeg
			{
				OFFSET -0.082453 -29.241932 0.688000
				CHANNELS 3 Xrotation Yrotation Zrotation
				JOINT RightFoot
				{
					OFFSET 0.082453 -29.568058 -0.264600
					CHANNELS 3 Xrotation Yrotation Zrotation
					JOINT RightToeBase
					{
						OFFSET -3.115300 -8.682800 16.113400
						CHANNELS 3 Xrotation Yrotation Zrotation
						End Site
						{
							OFFSET 0.000000 18.567114 0.000000
						}
					}
				}
			}
			JOINT Right_ShortSleeve
			{
				OFFSET -0.265923 -10.480953 1.153800
				CHANNELS 3 Xrotation Yrotation Zrotation
				End Site
				{
					OFFSET -1.725766 19.823910 0.000000
				}
			}
		}
	}
	JOINT Spine
	{
		OFFSET 0.000000 13.368103 0.470500
		CHANNELS 3 Xrotation Yrotation Zrotation
		JOINT Spine1
		{
			OFFSET 0.147000 13.837402 0.538800
			CHANNELS 3 Xrotation Yrotation Zrotation
			JOINT Spine2
			{
				OFFSET 0.168000 16.242897 -1.435500
				CHANNELS 3 Xrotation Yrotation Zrotation
				JOINT Neck
				{
					OFFSET 0.217200 18.631500 -1.679100
					CHANNELS 3 Xrotation Yrotation Zrotation
					JOINT Head
					{
						OFFSET 0.000000 6.599396 1.385900
						CHANNELS 3 Xrotation Yrotation Zrotation
						JOINT Hat
						{
							OFFSET -0.532200 27.220596 -10.096100
							CHANNELS 3 Xrotation Yrotation Zrotation
							End Site
							{
								OFFSET 0.000000 22.029861 0.000000
							}
						}
						JOINT HairD
						{
							OFFSET -10.777400 17.437393 -1.325900
							CHANNELS 3 Xrotation Yrotation Zrotation
							JOINT HairD1
							{
								OFFSET -3.290299 -11.051193 1.062200
								CHANNELS 3 Xrotation Yrotation Zrotation
								End Site
								{
									OFFSET 0.000000 11.579437 0.000000
								}
							}
						}
						JOINT HairB
						{
							OFFSET -10.777400 17.437393 1.467900
							CHANNELS 3 Xrotation Yrotation Zrotation
							JOINT HairB1
							{
								OFFSET -1.561200 -12.956299 3.590200
								CHANNELS 3 Xrotation Yrotation Zrotation
								End Site
								{
									OFFSET 0.000000 13.534866 0.000000
								}
							}
						}
						JOINT HairA
						{
							OFFSET 9.713100 17.437393 1.467900
							CHANNELS 3 Xrotation Yrotation Zrotation
							JOINT HairA1
							{
								OFFSET 1.561200 -12.956299 3.590200
								CHANNELS 3 Xrotation Yrotation Zrotation
								End Site
								{
									OFFSET 0.000000 13.534866 0.000000
								}
							}
						}
						JOINT HairC
						{
							OFFSET 9.713100 17.437393 -1.325900
							CHANNELS 3 Xrotation Yrotation Zrotation
							JOINT HairC1
							{
								OFFSET 3.290300 -11.051193 1.062200
								CHANNELS 3 Xrotation Yrotation Zrotation
								End Site
								{
									OFFSET 0.000000 11.579437 0.000000
								}
							}
						}
					}
				}
				JOINT LeftShoulder
				{
					OFFSET 5.101800 15.108002 -2.763700
					CHANNELS 3 Xrotation Yrotation Zrotation
					JOINT LeftArm
					{
						OFFSET 9.825497 2.506317 -1.597400
						CHANNELS 3 Xrotation Yrotation Zrotation
						JOINT LeftForeArm
						{
							OFFSET 21.966244 0.000000 0.000000
							CHANNELS 3 Xrotation Yrotation Zrotation
							JOINT LeftHand
							{
								OFFSET 33.879036 0.000000 0.000000
								CHANNELS 3 Xrotation Yrotation Zrotation
								JOINT LeftHandThumb1
								{
									OFFSET 6.715286 -2.359680 3.363841
									CHANNELS 3 Xrotation Yrotation Zrotation
									JOINT LeftHandThumb2
									{
										OFFSET 2.507072 -1.447464 1.447461
										CHANNELS 3 Xrotation Yrotation Zrotation
										JOINT LeftHandThumb3
										{
											OFFSET 2.898338 -1.673355 1.673357
											CHANNELS 3 Xrotation Yrotation Zrotation
											End Site
											{
												OFFSET -0.295959 3.727692 -0.131651
											}
										}
									}
								}
								JOINT LeftHandIndex1
								{
									OFFSET 14.190811 -0.254547 3.840278
									CHANNELS 3 Xrotation Yrotation Zrotation
									JOINT LeftHandIndex2
									{
										OFFSET 3.551727 0.000000 -0.000000
										CHANNELS 3 Xrotation Yrotation Zrotation
										JOINT LeftHandIndex3
										{
											OFFSET 2.894196 0.000000 0.000000
											CHANNELS 3 Xrotation Yrotation Zrotation
											End Site
											{
												OFFSET -1.000603 2.690872 0.366626
											}
										}
									}
								}
								JOINT LeftHandMiddle1
								{
									OFFSET 13.776489 0.000000 0.000000
									CHANNELS 3 Xrotation Yrotation Zrotation
									JOINT LeftHandMiddle2
									{
										OFFSET 3.438232 0.000000 0.000000
										CHANNELS 3 Xrotation Yrotation Zrotation
										JOINT LeftHandMiddle3
										{
											OFFSET 3.691551 0.000000 0.000000
											CHANNELS 3 Xrotation Yrotation Zrotation
											End Site
											{
												OFFSET -1.082298 3.499527 0.457670
											}
										}
									}
								}
								JOINT LeftHandRing1
								{
									OFFSET 13.966164 -0.268127 -3.067488
									CHANNELS 3 Xrotation Yrotation Zrotation
									JOINT LeftHandRing2
									{
										OFFSET 3.162567 0.000000 0.000000
										CHANNELS 3 Xrotation Yrotation Zrotation
										JOINT LeftHandRing3
										{
											OFFSET 3.324348 0.000000 0.000000
											CHANNELS 3 Xrotation Yrotation Zrotation
											End Site
											{
												OFFSET -0.861900 3.184998 0.405154
											}
										}
									}
								}
								JOINT LeftHandPinky1
								{
									OFFSET 13.131393 -0.168503 -5.746925
									CHANNELS 3 Xrotation Yrotation Zrotation
									JOINT LeftHandPinky2
									{
										OFFSET 2.849182 0.000000 0.000000
										CHANNELS 3 Xrotation Yrotation Zrotation
										JOINT LeftHandPinky3
										{
											OFFSET 2.805038 0.000000 0.000000
											CHANNELS 3 Xrotation Yrotation Zrotation
											End Site
											{
												OFFSET -0.882500 2.642609 0.325652
											}
										}
									}
								}
							}
							JOINT Left_Sleeve
							{
								OFFSET 6.592125 -0.646545 0.805568
								CHANNELS 3 Xrotation Yrotation Zrotation
								End Site
								{
									OFFSET -0.000179 20.275787 -0.000000
								}
							}
						}
					}
				}
				JOINT RightShoulder
				{
					OFFSET -5.731700 15.108002 -2.763700
					CHANNELS 3 Xrotation Yrotation Zrotation
					JOINT RightArm
					{
						OFFSET -9.825497 2.506317 -1.597400
						CHANNELS 3 Xrotation Yrotation Zrotation
						JOINT RightForeArm
						{
							OFFSET -21.966242 0.000000 0.000000
							CHANNELS 3 Xrotation Yrotation Zrotation
							JOINT RightHand
							{
								OFFSET -33.879032 0.000000 0.000000
								CHANNELS 3 Xrotation Yrotation Zrotation
								JOINT RightHandThumb1
								{
									OFFSET -6.715286 -2.359680 3.363841
									CHANNELS 3 Xrotation Yrotation Zrotation
									JOINT RightHandThumb2
									{
										OFFSET -2.507072 -1.447464 1.447461
										CHANNELS 3 Xrotation Yrotation Zrotation
										JOINT RightHandThumb3
										{
											OFFSET -2.898338 -1.673355 1.673357
											CHANNELS 3 Xrotation Yrotation Zrotation
											End Site
											{
												OFFSET 0.295959 3.727692 -0.131651
											}
										}
									}
								}
								JOINT RightHandIndex1
								{
									OFFSET -14.190811 -0.254547 3.840278
									CHANNELS 3 Xrotation Yrotation Zrotation
									JOINT RightHandIndex2
									{
										OFFSET -3.551727 0.000000 -0.000000
										CHANNELS 3 Xrotation Yrotation Zrotation
										JOINT RightHandIndex3
										{
											OFFSET -2.894196 0.000000 0.000000
											CHANNELS 3 Xrotation Yrotation Zrotation
											End Site
											{
												OFFSET 1.000603 2.690872 0.366626
											}
										}
									}
								}
								JOINT RightHandMiddle1
								{
									OFFSET -13.776489 0.000000 0.000000
									CHANNELS 3 Xrotation Yrotation Zrotation
									JOINT RightHandMiddle2
									{
										OFFSET -3.438232 0.000000 0.000000
										CHANNELS 3 Xrotation Yrotation Zrotation
										JOINT RightHandMiddle3
										{
											OFFSET -3.691551 0.000000 0.000000
											CHANNELS 3 Xrotation Yrotation Zrotation
											End Site
											{
												OFFSET 1.082298 3.499527 0.457670
											}
										}
									}
								}
								JOINT RightHandRing1
								{
									OFFSET -13.966164 -0.268127 -3.067488
									CHANNELS 3 Xrotation Yrotation Zrotation
									JOINT RightHandRing2
									{
										OFFSET -3.162567 0.000000 0.000000
										CHANNELS 3 Xrotation Yrotation Zrotation
										JOINT RightHandRing3
										{
											OFFSET -3.324348 0.000000 0.000000
											CHANNELS 3 Xrotation Yrotation Zrotation
											End Site
											{
												OFFSET 0.861900 3.184998 0.405154
											}
										}
									}
								}
								JOINT RightHandPinky1
								{
									OFFSET -13.131393 -0.168503 -5.746925
									CHANNELS 3 Xrotation Yrotation Zrotation
									JOINT RightHandPinky2
									{
										OFFSET -2.849182 0.000000 0.000000
										CHANNELS 3 Xrotation Yrotation Zrotation
										JOINT RightHandPinky3
										{
											OFFSET -2.805038 0.000000 0.000000
											CHANNELS 3 Xrotation Yrotation Zrotation
											End Site
											{
												OFFSET 0.882500 2.642609 0.325652
											}
										}
									}
								}
							}
							JOINT Right_Sleeve
							{
								OFFSET -6.592125 -0.646545 0.805568
								CHANNELS 3 Xrotation Yrotation Zrotation
								End Site
								{
									OFFSET 0.000179 20.275787 -0.000000
								}
							}
						}
					}
				}
				JOINT Bind_Right_JacketString
				{
					OFFSET -3.534800 11.969597 7.200700
					CHANNELS 3 Xrotation Yrotation Zrotation
					JOINT Bind_Right_JacketString1
					{
						OFFSET -0.319900 -6.102600 2.794100
						CHANNELS 3 Xrotation Yrotation Zrotation
						End Site
						{
							OFFSET 0.000000 6.719452 0.000000
						}
					}
				}
				JOINT Bind_Left_JacketString
				{
					OFFSET 2.904800 11.969597 7.200700
					CHANNELS 3 Xrotation Yrotation Zrotation
					JOINT Bind_Left_JacketString1
					{
						OFFSET 0.364800 -5.904503 3.186800
						CHANNELS 3 Xrotation Yrotation Zrotation
						End Site
						{
							OFFSET 0.000000 6.719513 0.000000
						}
					}
				}
				JOINT HairE
				{
					OFFSET 5.915200 17.612701 -11.592200
					CHANNELS 3 Xrotation Yrotation Zrotation
					JOINT HairE1
					{
						OFFSET 0.289200 -7.171898 -1.284500
						CHANNELS 3 Xrotation Yrotation Zrotation
						End Site
						{
							OFFSET 0.000000 7.291756 0.000000
						}
					}
				}
				JOINT HairF
				{
					OFFSET -0.864800 17.612701 -11.592200
					CHANNELS 3 Xrotation Yrotation Zrotation
					JOINT HairF1
					{
						OFFSET 0.000000 -14.087097 -2.127501
						CHANNELS 3 Xrotation Yrotation Zrotation
						End Site
						{
							OFFSET 0.000000 14.246841 0.000000
						}
					}
				}
				JOINT HairG
				{
					OFFSET -8.087700 17.612701 -11.592200
					CHANNELS 3 Xrotation Yrotation Zrotation
					JOINT HairG1
					{
						OFFSET -0.293600 -6.081398 -0.910100
						CHANNELS 3 Xrotation Yrotation Zrotation
						End Site
						{
							OFFSET 0.000000 6.156120 0.000000
						}
					}
				}
			}
		}
	}
	JOINT Pouch
	{
		OFFSET 0.000000 4.394501 10.847300
		CHANNELS 3 Xrotation Yrotation Zrotation
		End Site
		{
			OFFSET 0.000000 21.880577 0.000000
		}
	}
	JOINT Bag
	{
		OFFSET -13.229000 4.813004 -0.593300
		CHANNELS 3 Xrotation Yrotation Zrotation
		End Site
		{
			OFFSET 0.000000 21.880577 0.000000
		}
	}
	JOINT OccupyGuyFacialAnim_Joint
	{
		OFFSET 1.000000 -70.206398 -1.655000
		CHANNELS 3 Xrotation Yrotation Zrotation
		End Site
		{
			OFFSET 0.000000 21.880577 0.000000
		}
	}
}
MOTION
Frames: 4
Frame Time: 0.016667
0.360824 78.759514 -2.299095 -92.964284 0.958117 1.739685 0.000000 -0.000000 -0.000000 -0.714325 18.789651 17.151348 6.458880 4.724952 1.500133 20.261565 30.119830 -30.549408 0.000000 0.000001 -0.000000 -0.000000 -0.000002 0.000001 1.843538 -18.776473 -11.611415 2.525369 -7.225185 -8.058932 32.259923 -29.581911 29.213477 -0.000000 0.000000 0.000000 -0.000000 -0.000001 -0.000000 3.835682 1.371681 -0.738892 17.173671 2.320172 -1.615368 15.078710 2.910057 -1.904891 1.032866 0.830502 -3.592068 20.824675 3.567346 -10.053786 0.000002 0.000000 -0.000002 0.000002 0.000000 -0.000002 0.000002 0.000000 -0.000002 0.000002 0.000000 -0.000000 -0.000000 0.000001 0.000000 0.000002 0.000000 -0.000000 -0.000000 0.000001 0.000000 0.000002 0.000000 -0.000002 0.000002 0.000000 -0.000002 0.987228 5.865646 -0.070262 17.540373 -48.233645 -39.213434 0.000029 -78.452987 0.000026 -11.155060 -10.690907 -3.204736 6.590533 -4.958663 16.122639 7.178853 21.567321 2.147314 0.000000 -0.000000 -0.000004 0.659509 4.932347 -26.024470 0.169789 1.401608 -13.813546 0.000001 0.000002 0.000002 1.376916 6.461949 -24.994184 0.169880 1.401973 -13.817110 0.000002 0.000003 0.000003 2.098720 8.644277 -21.209675 0.169788 1.401613 -13.813532 -0.000002 0.000004 -0.000001 2.123420 10.735855 -14.817575 0.167497 1.392239 -13.719345 -0.000001 -0.000003 0.000001 -0.000000 -0.000001 -0.000003 1.003564 3.077427 16.318582 -30.625349 39.526110 60.112563 0.000071 122.611239 -0.000064 2.149672 2.949040 16.100989 -3.770199 1.684407 8.767254 7.918265 -27.751673 -3.100777 -0.000004 -0.000002 -0.000004 -0.371391 2.206051 53.128346 1.396281 -3.326825 45.526660 -0.000006 0.000001 -0.000001 -1.457713 -4.435188 63.714655 1.929825 -3.776458 54.123092 0.000003 0.000003 -0.000000 0.113589 -5.549172 69.688038 2.144043 -3.922168 57.313244 -0.000000 0.000001 -0.000001 2.818446 -6.533421 66.047588 2.835560 -4.286870 66.951632 -0.000001 0.000000 -0.000001 0.000003 0.000001 -0.000001 -0.000001 0.000001 -0.000000 0.000000 0.000000 -0.000000 -0.000001 0.000001 0.000000 -0.000001 0.000001 0.000000 -0.000001 0.000001 -0.000000 0.000000 0.000000 -0.000001 -0.000001 0.000001 0.000000 -0.000001 0.000001 0.000000 -0.000001 0.000001 -0.000000 0.000000 0.000000 -0.000001 0.000000 -0.000000 -0.000000 0.000000 -0.000000 -0.000000 0.000000 -0.000000 -0.000000 
0.330502 78.720024 -2.248634 -92.872452 0.812515 1.647082 0.000000 0.000000 0.000000 -0.807158 18.764128 17.161709 6.347434 4.818627 1.544586 20.791419 30.114564 -30.555811 0.000000 0.000002 -0.000000 0.000000 0.000002 -0.000000 1.636139 -18.711969 -11.516689 2.519932 -7.335145 -7.925662 32.523076 -29.404258 28.992323 -0.000001 -0.000001 0.000000 -0.000000 -0.000003 0.000000 3.768743 1.346459 -0.699197 16.775785 2.298675 -1.540693 14.708515 2.873934 -1.840031 1.206945 0.819801 -3.467084 21.720500 3.566618 -10.135180 0.000002 0.000000 0.000001 0.000002 0.000000 0.000001 0.000002 0.000000 0.000000 0.000002 0.000000 0.000001 0.000004 -0.000001 0.000002 0.000002 0.000000 0.000001 0.000004 -0.000001 0.000002 0.000002 0.000000 0.000001 0.000002 0.000000 0.000001 1.057883 5.646929 -0.072704 17.692954 -47.941111 -39.648828 -0.000072 -78.307115 -0.000075 -11.274800 -10.604927 -3.471081 6.590534 -4.958660 16.122639 7.178849 21.567320 2.147317 -0.000003 -0.000003 -0.000001 0.659511 4.932348 -26.024470 0.169790 1.401609 -13.813545 -0.000000 0.000001 -0.000002 1.376914 6.461951 -24.994186 0.169884 1.401972 -13.817109 0.000003 0.000004 -0.000001 2.098721 8.644284 -21.209681 0.169783 1.401607 -13.813539 0.000002 0.000000 -0.000002 2.123420 10.735863 -14.817573 0.167499 1.392239 -13.719340 -0.000001 -0.000003 -0.000003 0.000000 -0.000000 0.000002 0.998594 3.039518 16.387540 -30.378386 39.942390 60.251892 0.000054 121.965541 -0.000045 1.852894 2.561976 15.661371 -3.770224 1.684397 8.767253 7.918276 -27.751673 -3.100778 0.000001 -0.000001 0.000001 -0.371411 2.206042 53.128346 1.396286 -3.326828 45.526650 -0.000002 -0.000001 -0.000002 -1.457718 -4.435190 63.714662 1.929822 -3.776459 54.123058 0.000001 0.000002 -0.000000 0.113551 -5.549186 69.688038 2.144059 -3.922167 57.313244 0.000000 0.000002 -0.000003 2.818438 -6.533432 66.047581 2.835543 -4.286856 66.951604 -0.000000 -0.000000 -0.000001 -0.000001 -0.000001 -0.000002 0.000001 0.000000 -0.000001 0.000003 0.000000 -0.000000 0.000001 0.000000 -0.000001 0.000001 0.000000 -0.000001 0.000001 0.000000 -0.000001 0.000003 0.000000 -0.000001 0.000001 0.000000 -0.000001 0.000001 0.000000 -0.000001 0.000001 0.000000 -0.000001 0.000003 0.000000 -0.000001 0.000000 0.000000 0.000000 0.000000 0.000000 0.000000 0.000000 0.000000 0.000000 
0.309311 78.679832 -2.175369 -92.661454 0.732278 1.551661 -0.000000 0.000000 -0.000000 -0.906922 18.722681 17.173059 6.061707 4.930453 1.541132 21.552850 30.107392 -30.566456 0.000000 0.000002 -0.000000 -0.000000 -0.000001 -0.000001 1.416207 -18.643041 -11.430264 2.289881 -7.463189 -7.729155 33.155026 -29.236454 28.788192 -0.000001 0.000000 0.000001 0.000000 0.000001 0.000000 3.672206 1.290590 -0.662160 16.309073 2.217898 -1.457731 14.304880 2.791180 -1.752529 1.371164 0.810482 -3.366241 22.599870 3.500707 -10.232340 -0.000003 0.000000 -0.000003 -0.000003 0.000000 -0.000003 -0.000003 0.000000 -0.000003 -0.000003 0.000000 -0.000001 0.000002 -0.000000 0.000001 -0.000003 0.000000 -0.000001 0.000002 -0.000000 0.000001 -0.000003 0.000000 -0.000003 -0.000003 0.000000 -0.000003 1.036061 5.431821 -0.068785 17.978680 -47.538984 -40.193771 0.000115 -78.189431 0.000140 -11.401814 -10.483639 -3.731927 6.590534 -4.958664 16.122643 7.178852 21.567318 2.147314 0.000000 -0.000002 -0.000001 0.659508 4.932344 -26.024469 0.169788 1.401606 -13.813547 0.000003 0.000003 0.000000 1.376917 6.461948 -24.994181 0.169881 1.401971 -13.817109 -0.000000 0.000005 -0.000000 2.098724 8.644278 -21.209682 0.169788 1.401613 -13.813542 -0.000003 0.000000 -0.000002 2.123423 10.735860 -14.817575 0.167499 1.392237 -13.719343 -0.000000 -0.000000 0.000003 0.000001 -0.000003 0.000002 1.002756 3.007376 16.447019 -30.000708 40.337653 60.294280 0.000026 121.436761 -0.000030 1.901606 2.536344 15.603096 -3.770189 1.684407 8.767253 7.918271 -27.751672 -3.100779 0.000002 0.000000 0.000004 -0.371386 2.206050 53.128353 1.396269 -3.326829 45.526653 -0.000001 0.000000 -0.000001 -1.457704 -4.435187 63.714662 1.929824 -3.776458 54.123082 0.000001 -0.000003 -0.000001 0.113487 -5.549148 69.688031 2.144050 -3.922171 57.313258 -0.000000 0.000002 -0.000003 2.818441 -6.533430 66.047608 2.835554 -4.286874 66.951591 -0.000000 0.000000 -0.000001 -0.000001 0.000001 -0.000002 0.000000 0.000000 0.000000 0.000002 0.000000 -0.000000 0.000000 0.000000 0.000000 0.000000 0.000000 0.000000 0.000000 0.000000 0.000000 0.000002 0.000000 -0.000000 0.000000 0.000000 0.000000 0.000000 0.000000 0.000000 0.000000 0.000000 0.000000 0.000002 0.000000 -0.000000 -0.000000 0.000000 -0.000000 -0.000000 0.000000 -0.000000 -0.000000 0.000000 -0.000000 
0.293788 78.638954 -2.086571 -92.242961 0.744130 1.436465 0.000000 -0.000000 -0.000000 -1.223824 18.619260 17.219021 5.904279 5.150190 1.474121 22.455109 30.094763 -30.580830 -0.000000 0.000000 -0.000000 -0.000001 -0.000000 0.000001 1.084542 -18.556275 -11.175569 1.881413 -7.109461 -7.787308 34.538064 -29.497640 29.019213 0.000000 0.000002 -0.000000 0.000000 -0.000001 0.000000 3.568050 1.182872 -0.622530 15.819695 2.050238 -1.351607 13.873228 2.617392 -1.626180 1.388083 0.796732 -3.274178 23.145653 3.425967 -10.301211 -0.000002 0.000000 -0.000003 -0.000002 0.000000 -0.000003 -0.000002 0.000000 -0.000002 -0.000002 0.000000 -0.000001 0.000003 -0.000000 -0.000001 -0.000002 0.000000 -0.000001 0.000003 -0.000000 -0.000001 -0.000002 0.000000 -0.000003 -0.000002 0.000000 -0.000003 1.007920 5.213135 -0.072448 18.126048 -46.854780 -41.156599 0.000206 -78.131511 0.000197 -11.365479 -10.354291 -4.045949 6.590535 -4.958661 16.122641 7.178857 21.567316 2.147314 0.000000 -0.000000 -0.000002 0.659510 4.932349 -26.024474 0.169790 1.401606 -13.813549 0.000003 0.000001 -0.000002 1.376920 6.461953 -24.994186 0.169883 1.401976 -13.817113 0.000000 0.000000 -0.000001 2.098722 8.644281 -21.209686 0.169779 1.401615 -13.813536 0.000001 -0.000002 -0.000001 2.123421 10.735863 -14.817580 0.167498 1.392240 -13.719338 -0.000001 -0.000001 0.000001 -0.000001 0.000002 -0.000003 0.964788 2.960576 16.488488 -29.252129 40.564876 59.893116 -0.000030 121.381450 0.000021 2.367293 2.832849 15.788920 -3.770185 1.684419 8.767256 7.918266 -27.751673 -3.100780 0.000001 -0.000001 -0.000003 -0.371385 2.206050 53.128357 1.396297 -3.326826 45.526660 -0.000005 -0.000001 -0.000002 -1.457702 -4.435176 63.714648 1.929814 -3.776457 54.123068 0.000001 0.000002 -0.000000 0.113322 -5.549099 69.688024 2.144042 -3.922176 57.313258 -0.000002 0.000001 -0.000002 2.818449 -6.533424 66.047574 2.835552 -4.286869 66.951611 0.000000 0.000002 0.000001 0.000004 -0.000004 -0.000002 -0.000000 0.000000 -0.000000 -0.000000 0.000000 0.000000 -0.000000 0.000000 -0.000000 -0.000000 0.000000 -0.000000 -0.000000 0.000000 -0.000000 -0.000000 0.000000 -0.000000 -0.000000 0.000000 -0.000000 -0.000000 0.000000 -0.000000 -0.000000 0.000000 -0.000000 -0.000000 0.000000 -0.000000 0.000000 -0.000000 -0.000000 0.000000 -0.000000 -0.000000 0.000000 -0.000000 -0.000000 
